<mxfile host="app.diagrams.net" modified="2024-04-12T13:18:01.144Z" agent="Mozilla/5.0 (Windows NT 10.0; Win64; x64; rv:124.0) Gecko/20100101 Firefox/124.0" etag="sZ5kIlrOTle4u8EWuv_8" version="24.2.2" type="github">
  <diagram id="mG7DIjXlOFwaILFSZNXO" name="第 1 页">
    <mxGraphModel dx="3674" dy="1506" grid="1" gridSize="10" guides="1" tooltips="1" connect="1" arrows="1" fold="1" page="0" pageScale="1" pageWidth="827" pageHeight="1169" background="none" math="0" shadow="0">
      <root>
        <mxCell id="0" />
        <mxCell id="1" parent="0" />
        <mxCell id="node0" value="&lt;p style=&quot;margin:0px;margin-top:4px;text-align:center;&quot;&gt;&lt;b&gt;GoodController&lt;/b&gt;&lt;/p&gt;&lt;hr size=&quot;1&quot;/&gt;&lt;p style=&quot;margin:0 0 0 4px;line-height:1.6;&quot;&gt;+ getStandard(Integer): R&amp;lt;String&amp;gt;&lt;br/&gt;+ setRecommend(Long, Boolean): R&amp;lt;Void&amp;gt;&lt;br/&gt;+ update(Good): R&amp;lt;Void&amp;gt;&lt;br/&gt;+ findGoodFullPage(Integer, Integer, String, Integer): R&amp;lt;IPage&amp;lt;GoodVo&amp;gt;&amp;gt;&lt;br/&gt;+ saveStandard(List&amp;lt;Standard&amp;gt;, int): R&amp;lt;Void&amp;gt;&lt;br/&gt;+ findGoodPage(Integer, Integer, String, Integer): R&amp;lt;IPage&amp;lt;GoodVo&amp;gt;&amp;gt;&lt;br/&gt;+ save(Good): R&amp;lt;Long&amp;gt;&lt;br/&gt;+ findFrontGoods(): R&amp;lt;GoodVo&amp;gt;&lt;br/&gt;+ getSaleRank(int): R&amp;lt;List&amp;lt;Good&amp;gt;&amp;gt;&lt;br/&gt;+ delStandard(Standard): R&amp;lt;Void&amp;gt;&lt;br/&gt;+ delete(Long): R&amp;lt;Void&amp;gt;&lt;br/&gt;+ findGood(Long): R&amp;lt;Good&amp;gt;&lt;/p&gt;" style="verticalAlign=top;align=left;overflow=fill;fontSize=14;fontFamily=Helvetica;html=1;rounded=0;shadow=0;comic=0;labelBackgroundColor=none;strokeWidth=1;" parent="1" vertex="1">
          <mxGeometry x="-850" y="270" width="497" height="329" as="geometry" />
        </mxCell>
        <mxCell id="gOR0s_O7oEvGxBW6OIh1-1" value="&lt;p style=&quot;margin:0px;margin-top:4px;text-align:center;&quot;&gt;&lt;b&gt;Good&lt;/b&gt;&lt;/p&gt;&lt;hr size=&quot;1&quot;/&gt;&lt;p style=&quot;margin:0 0 0 4px;line-height:1.6;&quot;&gt;- name: String&lt;br/&gt;- description: String&lt;br/&gt;- saleMoney: BigDecimal&lt;br/&gt;- recommend: Boolean&lt;br/&gt;- categoryId: Long&lt;br/&gt;- id: Long&lt;br/&gt;- discount: Double&lt;br/&gt;- price: BigDecimal&lt;br/&gt;- isDelete: Boolean&lt;br/&gt;- sales: Integer&lt;br/&gt;- imgs: String&lt;br/&gt;- createTime: String&lt;/p&gt;" style="verticalAlign=top;align=left;overflow=fill;fontSize=14;fontFamily=Helvetica;html=1;rounded=0;shadow=0;comic=0;labelBackgroundColor=none;strokeWidth=1;" vertex="1" parent="1">
          <mxGeometry x="-1320" y="220" width="186" height="329" as="geometry" />
        </mxCell>
        <mxCell id="gOR0s_O7oEvGxBW6OIh1-2" value="&lt;p style=&quot;margin:0px;margin-top:4px;text-align:center;&quot;&gt;&lt;b&gt;GoodService&lt;/b&gt;&lt;/p&gt;&lt;hr size=&quot;1&quot;/&gt;&lt;p style=&quot;margin:0 0 0 4px;line-height:1.6;&quot;&gt;+ findFullPage(Integer, Integer, String, Integer): IPage&amp;lt;Good&amp;gt;&lt;br/&gt;+ saveOrUpdateGood(Good): Long&lt;br/&gt;+ setRecommend(Long, Boolean): boolean&lt;br/&gt;+ getSaleRank(int): List&amp;lt;Good&amp;gt;&lt;br/&gt;+ findPage(Integer, Integer, String, Integer): IPage&amp;lt;GoodVo&amp;gt;&lt;br/&gt;+ getStandard(Integer): String&lt;br/&gt;+ getGoodById(Long): Good&lt;br/&gt;+ findFrontGoods(): List&amp;lt;GoodVo&amp;gt;&lt;br/&gt;+ existGood(Long): Boolean&lt;br/&gt;+ update(Good): void&lt;br/&gt;+ getMinPrice(Long): BigDecimal&lt;br/&gt;+ loginDeleteGood(Long): void&lt;/p&gt;" style="verticalAlign=top;align=left;overflow=fill;fontSize=14;fontFamily=Helvetica;html=1;rounded=0;shadow=0;comic=0;labelBackgroundColor=none;strokeWidth=1;" vertex="1" parent="1">
          <mxGeometry x="-410" y="90" width="418" height="329" as="geometry" />
        </mxCell>
        <mxCell id="gOR0s_O7oEvGxBW6OIh1-3" value="&lt;p style=&quot;margin:0px;margin-top:4px;text-align:center;&quot;&gt;&lt;i&gt;&amp;lt;&amp;lt;interface&amp;gt;&amp;gt;&lt;/i&gt;&lt;br/&gt;&lt;b&gt;GoodMapper&lt;/b&gt;&lt;/p&gt;&lt;hr size=&quot;1&quot;/&gt;&lt;p style=&quot;margin:0 0 0 4px;line-height:1.6;&quot;&gt;+ getMinPrice(Long): BigDecimal&lt;br/&gt;+ insertGood(Good): void&lt;br/&gt;+ saleGood(Long, int, BigDecimal): boolean&lt;br/&gt;+ findFrontGoods(): List&amp;lt;GoodVo&amp;gt;&lt;br/&gt;+ getStandardById(Integer): List&amp;lt;GoodStandard&amp;gt;&lt;br/&gt;+ getSaleRank(int): List&amp;lt;Good&amp;gt;&lt;/p&gt;" style="verticalAlign=top;align=left;overflow=fill;fontSize=14;fontFamily=Helvetica;html=1;rounded=0;shadow=0;comic=0;labelBackgroundColor=none;strokeWidth=1;" vertex="1" parent="1">
          <mxGeometry x="-771.5" y="-160" width="340" height="185" as="geometry" />
        </mxCell>
        <mxCell id="gOR0s_O7oEvGxBW6OIh1-4" value="&lt;p style=&quot;margin:0px;margin-top:4px;text-align:center;&quot;&gt;&lt;b&gt;category  /* 分类表 */&lt;/b&gt;&lt;/p&gt;&lt;hr size=&quot;1&quot;/&gt;&lt;p style=&quot;margin:0 0 0 4px;line-height:1.6;&quot;&gt; name  /* 类别名称 */: varchar(255)&lt;/p&gt;&lt;hr size=&quot;1&quot;/&gt;&lt;p style=&quot;margin:0 0 0 4px;line-height:1.6;&quot;&gt; id  /* 主键 */: bigint(20)&lt;/p&gt;" style="verticalAlign=top;align=left;overflow=fill;fontSize=14;fontFamily=Helvetica;html=1;rounded=0;shadow=0;comic=0;labelBackgroundColor=none;strokeWidth=1;" vertex="1" parent="1">
          <mxGeometry x="315" y="170" width="227" height="97" as="geometry" />
        </mxCell>
        <mxCell id="gOR0s_O7oEvGxBW6OIh1-5" value="&lt;p style=&quot;margin:0px;margin-top:4px;text-align:center;&quot;&gt;&lt;b&gt;good  /* 商品表 */&lt;/b&gt;&lt;/p&gt;&lt;hr size=&quot;1&quot;/&gt;&lt;p style=&quot;margin:0 0 0 4px;line-height:1.6;&quot;&gt; name  /* 商品名称 */: varchar(255)&lt;br/&gt; description  /* 描述 */: varchar(1600)&lt;br/&gt; discount  /* 折扣 */: double(10,2)&lt;br/&gt; sales  /* 销量 */: bigint(20)&lt;br/&gt; sale_money  /* 销售额 */: double(10,2)&lt;br/&gt; category_id  /* 分类id */: bigint(20)&lt;br/&gt; imgs  /* 商品图片 */: varchar(255)&lt;br/&gt; create_time  /* 创建时间 */: datetime(6)&lt;br/&gt; recommend  /* 是否推荐。0不推荐，1推荐 */: tinyint(1)&lt;br/&gt; is_delete  /* 是否删除，0未删除，1删除 */: tinyint(1)&lt;/p&gt;&lt;hr size=&quot;1&quot;/&gt;&lt;p style=&quot;margin:0 0 0 4px;line-height:1.6;&quot;&gt; id  /* 主键 */: bigint(20)&lt;/p&gt;" style="verticalAlign=top;align=left;overflow=fill;fontSize=14;fontFamily=Helvetica;html=1;rounded=0;shadow=0;comic=0;labelBackgroundColor=none;strokeWidth=1;" vertex="1" parent="1">
          <mxGeometry x="260" y="362" width="337" height="306" as="geometry" />
        </mxCell>
        <mxCell id="gOR0s_O7oEvGxBW6OIh1-6" value="" style="html=1;rounded=1;edgeStyle=orthogonalEdgeStyle;dashed=0;startArrow=none;endArrow=block;endSize=12;strokeColor=#595959;exitX=0.500;exitY=0.000;exitDx=0;exitDy=0;entryX=0.500;entryY=1.001;entryDx=0;entryDy=0;" edge="1" parent="1" source="gOR0s_O7oEvGxBW6OIh1-5" target="gOR0s_O7oEvGxBW6OIh1-4">
          <mxGeometry width="50" height="50" relative="1" as="geometry">
            <Array as="points" />
          </mxGeometry>
        </mxCell>
        <mxCell id="gOR0s_O7oEvGxBW6OIh1-7" value="category_id:id" style="edgeLabel;resizable=0;html=1;align=left;verticalAlign=top;strokeColor=default;" vertex="1" connectable="0" parent="gOR0s_O7oEvGxBW6OIh1-6">
          <mxGeometry x="-80" y="-22" as="geometry" />
        </mxCell>
      </root>
    </mxGraphModel>
  </diagram>
</mxfile>
